<svg height="660" width="660"
    xmlns="http://www.w3.org/2000/svg"
    xmlns:xlink="http://www.w3.org/1999/xlink"
    xmlns:ev="http://www.w3.org/2001/xml-events">
<title>Original Bottom Strand</title>
<rect x="0" y="0" width="660" height="660" fill="white" />
<text x="330" y="20" text-anchor="middle">Original Bottom Strand</text>
<line x1="80" y1="80" x2="80" y2="580" stroke="black" />
<line x1="80" y1="580" x2="580" y2="580" stroke="black" />
<text x="15" y="330" transform="rotate(270 15, 330)" text-anchor="middle" dominant-baseline="text-before-edge">CpG Methylation %</text>
<text x="330" y="620" text-anchor="middle">Position along mapped read (5'->3' of + strand)</text>
<line x1="80" y1="580" x2="80" y2="585" stroke="black" />
<text x="80" y="600" text-anchor="middle">0</text>
<line x1="113.333333" y1="80" x2="113.333333" y2="580" stroke-dasharray="5 5" stroke="grey" />
<line x1="113.333333" y1="580" x2="113.333333" y2="585" stroke="black" />
<text x="113.333333" y="600" text-anchor="middle">10</text>
<line x1="146.666667" y1="80" x2="146.666667" y2="580" stroke-dasharray="5 5" stroke="grey" />
<line x1="146.666667" y1="580" x2="146.666667" y2="585" stroke="black" />
<text x="146.666667" y="600" text-anchor="middle">20</text>
<line x1="180.000000" y1="80" x2="180.000000" y2="580" stroke-dasharray="5 5" stroke="grey" />
<line x1="180.000000" y1="580" x2="180.000000" y2="585" stroke="black" />
<text x="180.000000" y="600" text-anchor="middle">30</text>
<line x1="213.333333" y1="80" x2="213.333333" y2="580" stroke-dasharray="5 5" stroke="grey" />
<line x1="213.333333" y1="580" x2="213.333333" y2="585" stroke="black" />
<text x="213.333333" y="600" text-anchor="middle">40</text>
<line x1="246.666667" y1="80" x2="246.666667" y2="580" stroke-dasharray="5 5" stroke="grey" />
<line x1="246.666667" y1="580" x2="246.666667" y2="585" stroke="black" />
<text x="246.666667" y="600" text-anchor="middle">50</text>
<line x1="280.000000" y1="80" x2="280.000000" y2="580" stroke-dasharray="5 5" stroke="grey" />
<line x1="280.000000" y1="580" x2="280.000000" y2="585" stroke="black" />
<text x="280.000000" y="600" text-anchor="middle">60</text>
<line x1="313.333333" y1="80" x2="313.333333" y2="580" stroke-dasharray="5 5" stroke="grey" />
<line x1="313.333333" y1="580" x2="313.333333" y2="585" stroke="black" />
<text x="313.333333" y="600" text-anchor="middle">70</text>
<line x1="346.666667" y1="80" x2="346.666667" y2="580" stroke-dasharray="5 5" stroke="grey" />
<line x1="346.666667" y1="580" x2="346.666667" y2="585" stroke="black" />
<text x="346.666667" y="600" text-anchor="middle">80</text>
<line x1="380.000000" y1="80" x2="380.000000" y2="580" stroke-dasharray="5 5" stroke="grey" />
<line x1="380.000000" y1="580" x2="380.000000" y2="585" stroke="black" />
<text x="380.000000" y="600" text-anchor="middle">90</text>
<line x1="413.333333" y1="80" x2="413.333333" y2="580" stroke-dasharray="5 5" stroke="grey" />
<line x1="413.333333" y1="580" x2="413.333333" y2="585" stroke="black" />
<text x="413.333333" y="600" text-anchor="middle">100</text>
<line x1="446.666667" y1="80" x2="446.666667" y2="580" stroke-dasharray="5 5" stroke="grey" />
<line x1="446.666667" y1="580" x2="446.666667" y2="585" stroke="black" />
<text x="446.666667" y="600" text-anchor="middle">110</text>
<line x1="480.000000" y1="80" x2="480.000000" y2="580" stroke-dasharray="5 5" stroke="grey" />
<line x1="480.000000" y1="580" x2="480.000000" y2="585" stroke="black" />
<text x="480.000000" y="600" text-anchor="middle">120</text>
<line x1="513.333333" y1="80" x2="513.333333" y2="580" stroke-dasharray="5 5" stroke="grey" />
<line x1="513.333333" y1="580" x2="513.333333" y2="585" stroke="black" />
<text x="513.333333" y="600" text-anchor="middle">130</text>
<line x1="546.666667" y1="80" x2="546.666667" y2="580" stroke-dasharray="5 5" stroke="grey" />
<line x1="546.666667" y1="580" x2="546.666667" y2="585" stroke="black" />
<text x="546.666667" y="600" text-anchor="middle">140</text>
<line x1="580.000000" y1="80" x2="580.000000" y2="580" stroke-dasharray="5 5" stroke="grey" />
<line x1="580.000000" y1="580" x2="580.000000" y2="585" stroke="black" />
<text x="580.000000" y="600" text-anchor="middle">150</text>
<line x1="80" y1="580.000000" x2="75" y2="580.000000" stroke="black" />
<text x="55" y="580.000000" text-anchor="middle" dominant-baseline="middle">0.55</text>
<line x1="80" y1="524.444444" x2="75" y2="524.444444" stroke="black" />
<text x="55" y="524.444444" text-anchor="middle" dominant-baseline="middle">0.60</text>
<line x1="80" y1="468.888889" x2="75" y2="468.888889" stroke="black" />
<text x="55" y="468.888889" text-anchor="middle" dominant-baseline="middle">0.65</text>
<line x1="80" y1="413.333333" x2="75" y2="413.333333" stroke="black" />
<text x="55" y="413.333333" text-anchor="middle" dominant-baseline="middle">0.70</text>
<line x1="80" y1="357.777778" x2="75" y2="357.777778" stroke="black" />
<text x="55" y="357.777778" text-anchor="middle" dominant-baseline="middle">0.75</text>
<line x1="80" y1="302.222222" x2="75" y2="302.222222" stroke="black" />
<text x="55" y="302.222222" text-anchor="middle" dominant-baseline="middle">0.80</text>
<line x1="80" y1="246.666667" x2="75" y2="246.666667" stroke="black" />
<text x="55" y="246.666667" text-anchor="middle" dominant-baseline="middle">0.85</text>
<line x1="80" y1="191.111111" x2="75" y2="191.111111" stroke="black" />
<text x="55" y="191.111111" text-anchor="middle" dominant-baseline="middle">0.90</text>
<line x1="80" y1="135.555556" x2="75" y2="135.555556" stroke="black" />
<text x="55" y="135.555556" text-anchor="middle" dominant-baseline="middle">0.95</text>
<line x1="80" y1="80.000000" x2="75" y2="80.000000" stroke="black" />
<text x="55" y="80.000000" text-anchor="middle" dominant-baseline="middle">1.00</text>
<path d="M 83.333333 440.911442
  L 86.666667 469.126118
  L 90.000000 438.393148
  L 93.333333 430.641490
  L 96.666667 476.384260
  L 100.000000 473.536476
  L 103.333333 436.918950
  L 106.666667 428.599258
  L 110.000000 449.053886
  L 113.333333 429.484453
  L 116.666667 417.664536
  L 120.000000 453.714145
  L 123.333333 433.289850
  L 126.666667 427.600213
  L 130.000000 431.416147
  L 133.333333 429.019462
  L 136.666667 409.746062
  L 140.000000 402.973279
  L 143.333333 427.275981
  L 146.666667 419.795493
  L 150.000000 407.308707
  L 153.333333 434.746412
  L 156.666667 410.728500
  L 160.000000 421.553467
  L 163.333333 440.737440
  L 166.666667 414.503773
  L 170.000000 397.370615
  L 173.333333 411.444751
  L 176.666667 405.656480
  L 180.000000 428.051870
  L 183.333333 433.938618
  L 186.666667 396.438281
  L 190.000000 412.996158
  L 193.333333 394.491875
  L 196.666667 412.590827
  L 200.000000 406.281001
  L 203.333333 425.226279
  L 206.666667 412.070295
  L 210.000000 405.901074
  L 213.333333 423.851973
  L 216.666667 416.186964
  L 220.000000 430.341051
  L 223.333333 424.875276
  L 226.666667 419.802520
  L 230.000000 416.758162
  L 233.333333 427.648362
  L 236.666667 423.294143
  L 240.000000 423.066355
  L 243.333333 399.498955
  L 246.666667 428.054045
  L 250.000000 420.059740
  L 253.333333 422.053395
  L 256.666667 421.617823
  L 260.000000 423.868494
  L 263.333333 427.357321
  L 266.666667 417.571423
  L 270.000000 398.698129
  L 273.333333 418.753408
  L 276.666667 421.411216
  L 280.000000 407.820186
  L 283.333333 425.472017
  L 286.666667 432.397711
  L 290.000000 418.710710
  L 293.333333 417.009393
  L 296.666667 446.241998
  L 300.000000 427.147780
  L 303.333333 415.222507
  L 306.666667 406.744024
  L 310.000000 408.855190
  L 313.333333 398.840210
  L 316.666667 400.000229
  L 320.000000 409.982410
  L 323.333333 412.306698
  L 326.666667 409.003263
  L 330.000000 427.188396
  L 333.333333 427.632784
  L 336.666667 400.746229
  L 340.000000 438.703135
  L 343.333333 424.550294
  L 346.666667 426.350727
  L 350.000000 413.080238
  L 353.333333 428.150278
  L 356.666667 414.782019
  L 360.000000 432.876498
  L 363.333333 424.908274
  L 366.666667 402.416775
  L 370.000000 432.398929
  L 373.333333 426.064224
  L 376.666667 402.869479
  L 380.000000 416.862723
  L 383.333333 426.425111
  L 386.666667 416.703639
  L 390.000000 415.671981
  L 393.333333 421.107522
  L 396.666667 415.828419
  L 400.000000 445.179475
  L 403.333333 423.726006
  L 406.666667 419.224985
  L 410.000000 412.401769
  L 413.333333 410.991803
  L 416.666667 436.144818
  L 420.000000 425.848546
  L 423.333333 414.444173
  L 426.666667 408.432347
  L 430.000000 438.331352
  L 433.333333 411.093141
  L 436.666667 408.509239
  L 440.000000 433.473039
  L 443.333333 416.652246
  L 446.666667 411.180909
  L 450.000000 404.828091
  L 453.333333 433.487851
  L 456.666667 427.282398
  L 460.000000 444.585044
  L 463.333333 431.670253
  L 466.666667 420.772199
  L 470.000000 435.462045
  L 473.333333 419.760864
  L 476.666667 445.036043
  L 480.000000 424.773801
  L 483.333333 420.404522
  L 486.666667 399.196632
  L 490.000000 411.075285
  L 493.333333 437.373457
  L 496.666667 423.663434
  L 500.000000 443.649477
  L 503.333333 420.374667
  L 506.666667 424.088484
  L 510.000000 417.906794
  L 513.333333 433.833593
  L 516.666667 423.253227
  L 520.000000 429.661709
  L 523.333333 446.751067
  L 526.666667 421.042873
  L 530.000000 429.962924
  L 533.333333 430.484919
  L 536.666667 451.042061
  L 540.000000 457.828182
  L 543.333333 424.280223
  L 546.666667 463.062669
  L 550.000000 435.117045
  L 553.333333 440.692829
  L 556.666667 442.101409
  L 560.000000 445.282665
  L 563.333333 422.160610
  L 566.666667 430.879917
  L 570.000000 400.234987
  L 573.333333 466.086093
  L 576.666667 515.960929
  L 580.000000 330.477278
  L 580.000000 240.966414
  L 576.666667 398.027957
  L 573.333333 356.952280
  L 570.000000 301.485682
  L 566.666667 323.958177
  L 563.333333 320.498940
  L 560.000000 343.668782
  L 556.666667 339.996281
  L 553.333333 341.165905
  L 550.000000 338.537017
  L 546.666667 367.170057
  L 543.333333 334.336623
  L 540.000000 362.647682
  L 536.666667 358.269079
  L 533.333333 339.075664
  L 530.000000 342.480414
  L 526.666667 334.302224
  L 523.333333 358.174268
  L 520.000000 343.438665
  L 516.666667 336.967045
  L 513.333333 348.481831
  L 510.000000 336.548052
  L 506.666667 342.859765
  L 503.333333 337.182426
  L 500.000000 359.835288
  L 496.666667 343.975449
  L 493.333333 354.160297
  L 490.000000 333.291488
  L 486.666667 321.894508
  L 483.333333 340.951732
  L 480.000000 346.919693
  L 476.666667 365.649182
  L 473.333333 341.365684
  L 470.000000 356.794721
  L 466.666667 342.862176
  L 463.333333 354.800386
  L 460.000000 366.712555
  L 456.666667 351.601522
  L 453.333333 357.226998
  L 450.000000 329.256301
  L 446.666667 337.718894
  L 443.333333 342.572211
  L 440.000000 358.178627
  L 436.666667 334.076001
  L 433.333333 336.030426
  L 430.000000 365.744772
  L 426.666667 336.923552
  L 423.333333 342.453376
  L 420.000000 351.391394
  L 416.666667 360.949538
  L 413.333333 339.017100
  L 410.000000 340.476336
  L 406.666667 347.040924
  L 403.333333 352.704442
  L 400.000000 371.471179
  L 396.666667 344.008778
  L 393.333333 349.696496
  L 390.000000 344.349836
  L 386.666667 345.373541
  L 383.333333 354.496416
  L 380.000000 345.504638
  L 376.666667 332.318849
  L 373.333333 354.309961
  L 370.000000 359.454168
  L 366.666667 334.065985
  L 363.333333 355.079528
  L 360.000000 361.028143
  L 356.666667 343.089356
  L 353.333333 357.198684
  L 350.000000 341.394081
  L 346.666667 355.646848
  L 343.333333 353.277674
  L 340.000000 366.706987
  L 336.666667 332.801800
  L 333.333333 355.554655
  L 330.000000 355.522824
  L 326.666667 339.372702
  L 323.333333 342.483933
  L 320.000000 340.622181
  L 316.666667 330.681991
  L 313.333333 330.801514
  L 310.000000 341.123363
  L 306.666667 339.119161
  L 303.333333 347.119237
  L 300.000000 357.565738
  L 296.666667 374.808308
  L 293.333333 349.057274
  L 290.000000 349.453123
  L 286.666667 362.414818
  L 283.333333 356.417894
  L 280.000000 341.020597
  L 276.666667 353.321582
  L 273.333333 351.052974
  L 270.000000 330.685000
  L 266.666667 348.765859
  L 263.333333 357.791681
  L 260.000000 355.473776
  L 256.666667 353.198440
  L 253.333333 355.143484
  L 250.000000 351.599355
  L 246.666667 358.727450
  L 243.333333 332.570549
  L 240.000000 353.904264
  L 236.666667 353.157457
  L 233.333333 358.833989
  L 230.000000 348.141315
  L 226.666667 350.620909
  L 223.333333 355.667605
  L 220.000000 360.641716
  L 216.666667 347.148471
  L 213.333333 356.278099
  L 210.000000 339.428476
  L 206.666667 345.238230
  L 203.333333 357.619402
  L 200.000000 339.890728
  L 196.666667 345.181350
  L 193.333333 328.449493
  L 190.000000 345.218497
  L 186.666667 331.007627
  L 183.333333 365.131172
  L 180.000000 360.320514
  L 176.666667 339.323650
  L 173.333333 344.029916
  L 170.000000 331.429005
  L 166.666667 346.622309
  L 163.333333 370.955931
  L 160.000000 354.770209
  L 156.666667 343.335179
  L 153.333333 366.189602
  L 150.000000 341.935214
  L 146.666667 353.432836
  L 143.333333 360.490361
  L 140.000000 336.002882
  L 136.666667 342.519625
  L 133.333333 359.585535
  L 130.000000 362.140234
  L 126.666667 358.347732
  L 123.333333 362.958984
  L 120.000000 382.559219
  L 116.666667 348.584102
  L 113.333333 360.124800
  L 110.000000 378.369237
  L 106.666667 359.679843
  L 103.333333 368.944791
  L 100.000000 400.790214
  L 96.666667 402.199979
  L 93.333333 360.588718
  L 90.000000 364.842022
  L 86.666667 403.644577
  L 83.333333 367.956190
Z" fill="rgb(248,118,109)" fill-opacity="0.2"/>
<path d="M 83.333333 347.357312
  L 86.666667 436.338733
  L 90.000000 485.280689
  L 93.333333 458.073898
  L 96.666667 411.736815
  L 100.000000 413.025208
  L 103.333333 433.722070
  L 106.666667 414.166812
  L 110.000000 429.022073
  L 113.333333 432.388520
  L 116.666667 422.215279
  L 120.000000 437.835440
  L 123.333333 444.906862
  L 126.666667 439.592289
  L 130.000000 429.542051
  L 133.333333 410.010172
  L 136.666667 425.883728
  L 140.000000 404.893732
  L 143.333333 426.088435
  L 146.666667 430.107106
  L 150.000000 442.341863
  L 153.333333 419.166758
  L 156.666667 396.146727
  L 160.000000 419.448624
  L 163.333333 427.339144
  L 166.666667 423.767411
  L 170.000000 404.809734
  L 173.333333 427.810489
  L 176.666667 403.267925
  L 180.000000 429.299440
  L 183.333333 420.102225
  L 186.666667 414.418136
  L 190.000000 422.375184
  L 193.333333 421.191160
  L 196.666667 424.412546
  L 200.000000 397.508238
  L 203.333333 415.711386
  L 206.666667 456.089870
  L 210.000000 412.388798
  L 213.333333 449.215353
  L 216.666667 424.663418
  L 220.000000 415.441846
  L 223.333333 429.513405
  L 226.666667 409.621771
  L 230.000000 420.062234
  L 233.333333 410.588910
  L 236.666667 420.106670
  L 240.000000 429.583161
  L 243.333333 415.297100
  L 246.666667 415.371396
  L 250.000000 420.158190
  L 253.333333 433.427271
  L 256.666667 421.843358
  L 260.000000 414.500358
  L 263.333333 400.417795
  L 266.666667 429.216310
  L 270.000000 434.750651
  L 273.333333 445.423356
  L 276.666667 406.806566
  L 280.000000 439.654865
  L 283.333333 439.097704
  L 286.666667 405.647157
  L 290.000000 428.759667
  L 293.333333 438.062795
  L 296.666667 413.774341
  L 300.000000 413.669241
  L 303.333333 439.157100
  L 306.666667 428.067280
  L 310.000000 427.531077
  L 313.333333 416.460624
  L 316.666667 418.621805
  L 320.000000 415.656231
  L 323.333333 436.920032
  L 326.666667 420.925373
  L 330.000000 416.232656
  L 333.333333 398.698129
  L 336.666667 427.445765
  L 340.000000 394.471424
  L 343.333333 428.298776
  L 346.666667 416.434549
  L 350.000000 434.584631
  L 353.333333 433.954808
  L 356.666667 429.935232
  L 360.000000 414.126095
  L 363.333333 400.698357
  L 366.666667 413.632855
  L 370.000000 403.267925
  L 373.333333 423.677119
  L 376.666667 416.066617
  L 380.000000 423.893534
  L 383.333333 401.232340
  L 386.666667 409.139429
  L 390.000000 419.884774
  L 393.333333 426.545851
  L 396.666667 428.454162
  L 400.000000 415.148891
  L 403.333333 413.428998
  L 406.666667 440.358328
  L 410.000000 432.894484
  L 413.333333 423.268554
  L 416.666667 407.028414
  L 420.000000 393.399263
  L 423.333333 431.194950
  L 426.666667 416.367454
  L 430.000000 432.716860
  L 433.333333 430.352322
  L 436.666667 410.984841
  L 440.000000 418.291153
  L 443.333333 423.131488
  L 446.666667 422.921038
  L 450.000000 423.629429
  L 453.333333 419.791923
  L 456.666667 415.514614
  L 460.000000 439.854854
  L 463.333333 425.088350
  L 466.666667 412.742904
  L 470.000000 436.525867
  L 473.333333 408.208370
  L 476.666667 406.701320
  L 480.000000 406.691247
  L 483.333333 415.986630
  L 486.666667 422.657902
  L 490.000000 413.995842
  L 493.333333 427.235689
  L 496.666667 424.012456
  L 500.000000 424.820037
  L 503.333333 414.482470
  L 506.666667 417.440698
  L 510.000000 419.490503
  L 513.333333 435.208381
  L 516.666667 453.369035
  L 520.000000 449.026476
  L 523.333333 424.254032
  L 526.666667 412.679776
  L 530.000000 427.596580
  L 533.333333 450.828052
  L 536.666667 455.797156
  L 540.000000 435.428062
  L 543.333333 417.413010
  L 546.666667 424.977605
  L 550.000000 448.265898
  L 553.333333 418.955909
  L 556.666667 437.364891
  L 560.000000 464.897047
  L 563.333333 433.166432
  L 566.666667 454.652223
  L 570.000000 464.350146
  L 573.333333 459.263815
  L 576.666667 458.370437
  L 580.000000 484.524980
  L 580.000000 384.736790
  L 576.666667 366.913192
  L 573.333333 367.007742
  L 570.000000 372.247913
  L 566.666667 362.885032
  L 563.333333 347.196695
  L 560.000000 375.242229
  L 556.666667 353.034613
  L 553.333333 337.037313
  L 550.000000 364.828288
  L 546.666667 342.639116
  L 543.333333 337.086051
  L 540.000000 356.041981
  L 536.666667 375.862776
  L 533.333333 369.627190
  L 530.000000 349.142340
  L 526.666667 335.874775
  L 523.333333 346.714434
  L 520.000000 370.918869
  L 516.666667 373.506515
  L 513.333333 358.905622
  L 510.000000 346.167350
  L 506.666667 342.488625
  L 503.333333 343.312616
  L 500.000000 350.100844
  L 496.666667 350.684898
  L 493.333333 353.946893
  L 490.000000 342.678984
  L 486.666667 349.141328
  L 483.333333 343.537594
  L 480.000000 335.195701
  L 476.666667 334.072936
  L 473.333333 336.801110
  L 470.000000 363.115142
  L 466.666667 341.765551
  L 463.333333 352.932707
  L 460.000000 367.237565
  L 456.666667 344.336165
  L 453.333333 350.140865
  L 450.000000 351.320906
  L 446.666667 351.366977
  L 443.333333 351.313451
  L 440.000000 347.870416
  L 436.666667 341.116178
  L 433.333333 359.461708
  L 430.000000 360.730528
  L 426.666667 346.113767
  L 423.333333 359.735315
  L 420.000000 324.717362
  L 416.666667 337.913672
  L 413.333333 353.242193
  L 410.000000 360.377633
  L 406.666667 369.951912
  L 403.333333 343.130556
  L 400.000000 347.408680
  L 396.666667 359.012061
  L 393.333333 357.465740
  L 390.000000 350.637435
  L 386.666667 341.358740
  L 383.333333 332.317740
  L 380.000000 354.025450
  L 376.666667 345.192506
  L 373.333333 353.792861
  L 370.000000 334.323573
  L 366.666667 345.595746
  L 363.333333 332.977612
  L 360.000000 345.646760
  L 356.666667 361.763282
  L 353.333333 364.369743
  L 350.000000 364.750178
  L 346.666667 346.552951
  L 343.333333 357.748819
  L 340.000000 326.616696
  L 336.666667 359.529849
  L 333.333333 330.685000
  L 330.000000 348.060265
  L 326.666667 351.135356
  L 323.333333 366.711714
  L 320.000000 347.479870
  L 316.666667 350.845489
  L 313.333333 347.996300
  L 310.000000 359.028092
  L 306.666667 357.343668
  L 303.333333 368.237502
  L 300.000000 346.521192
  L 296.666667 344.080597
  L 293.333333 367.722057
  L 290.000000 359.961070
  L 286.666667 338.315007
  L 283.333333 368.890857
  L 280.000000 370.612377
  L 276.666667 338.858942
  L 273.333333 373.864738
  L 270.000000 362.480835
  L 266.666667 360.489983
  L 263.333333 333.065475
  L 260.000000 346.417833
  L 256.666667 351.898220
  L 253.333333 364.171499
  L 250.000000 351.980101
  L 246.666667 346.524163
  L 243.333333 345.987925
  L 240.000000 360.157578
  L 236.666667 351.335782
  L 233.333333 342.195607
  L 230.000000 352.485351
  L 226.666667 341.238076
  L 223.333333 359.746795
  L 220.000000 347.047489
  L 216.666667 354.927376
  L 213.333333 377.619198
  L 210.000000 343.420626
  L 206.666667 384.768197
  L 203.333333 348.271472
  L 200.000000 329.599836
  L 196.666667 354.246980
  L 193.333333 352.391552
  L 190.000000 353.731129
  L 186.666667 345.889079
  L 183.333333 350.870188
  L 180.000000 357.884541
  L 176.666667 334.323573
  L 173.333333 357.182876
  L 170.000000 336.947965
  L 166.666667 353.815509
  L 163.333333 356.790106
  L 160.000000 350.170739
  L 156.666667 327.817767
  L 153.333333 350.400429
  L 150.000000 371.067223
  L 146.666667 358.556901
  L 143.333333 355.748148
  L 140.000000 335.205448
  L 136.666667 352.829958
  L 133.333333 339.461889
  L 130.000000 357.701032
  L 126.666667 366.687691
  L 123.333333 369.744418
  L 120.000000 363.915339
  L 116.666667 351.506169
  L 113.333333 360.456968
  L 110.000000 357.544338
  L 106.666667 343.052870
  L 103.333333 363.115543
  L 100.000000 344.578430
  L 96.666667 344.372171
  L 93.333333 382.514146
  L 90.000000 401.506800
  L 86.666667 366.273194
  L 83.333333 206.318031
Z" fill="rgb(0,191,196)" fill-opacity="0.2"/>
<path d="M 83.333333 403.222545
  L 86.666667 435.588404
  L 90.000000 400.364875
  L 93.333333 394.436886
  L 96.666667 438.287365
  L 100.000000 436.183817
  L 103.333333 401.871345
  L 106.666667 392.989045
  L 110.000000 412.638268
  L 113.333333 393.644009
  L 116.666667 381.888688
  L 120.000000 417.078652
  L 123.333333 396.954807
  L 126.666667 391.804009
  L 130.000000 395.634218
  L 133.333333 393.135825
  L 136.666667 374.912636
  L 140.000000 368.227860
  L 143.333333 392.801433
  L 146.666667 385.498045
  L 150.000000 373.457858
  L 153.333333 399.372729
  L 156.666667 375.812152
  L 160.000000 387.041992
  L 163.333333 404.748590
  L 166.666667 379.351567
  L 170.000000 363.140283
  L 173.333333 376.522034
  L 176.666667 371.275931
  L 180.000000 393.075506
  L 183.333333 398.425242
  L 186.666667 362.477909
  L 190.000000 377.888938
  L 193.333333 360.184864
  L 196.666667 377.679355
  L 200.000000 371.873964
  L 203.333333 390.297526
  L 206.666667 377.466553
  L 210.000000 371.446774
  L 213.333333 388.931533
  L 216.666667 380.422705
  L 220.000000 394.324203
  L 223.333333 389.083681
  L 226.666667 383.987961
  L 230.000000 381.225746
  L 233.333333 392.087912
  L 236.666667 386.990570
  L 240.000000 387.286219
  L 243.333333 364.749743
  L 246.666667 392.221231
  L 250.000000 384.635762
  L 253.333333 387.477289
  L 256.666667 386.227106
  L 260.000000 388.507020
  L 263.333333 391.391013
  L 266.666667 381.943199
  L 270.000000 363.353609
  L 273.333333 383.729335
  L 276.666667 386.196488
  L 280.000000 373.203233
  L 283.333333 389.767304
  L 286.666667 396.243171
  L 290.000000 382.847065
  L 293.333333 381.837270
  L 296.666667 409.406965
  L 300.000000 391.171144
  L 303.333333 379.955889
  L 306.666667 371.672815
  L 310.000000 373.742018
  L 313.333333 363.482935
  L 316.666667 363.956460
  L 320.000000 373.996499
  L 323.333333 376.088515
  L 326.666667 372.863088
  L 330.000000 390.089889
  L 333.333333 390.315155
  L 336.666667 365.455369
  L 340.000000 401.513002
  L 343.333333 387.643514
  L 346.666667 389.764310
  L 350.000000 375.857988
  L 353.333333 391.443873
  L 356.666667 377.570298
  L 360.000000 395.722672
  L 363.333333 388.782587
  L 366.666667 366.918546
  L 370.000000 394.650934
  L 373.333333 388.909198
  L 376.666667 366.178862
  L 380.000000 379.849268
  L 383.333333 389.178744
  L 386.666667 379.704062
  L 390.000000 378.668392
  L 393.333333 384.099193
  L 396.666667 378.556430
  L 400.000000 407.118090
  L 403.333333 386.948386
  L 406.666667 381.783265
  L 410.000000 375.043925
  L 413.333333 373.595294
  L 416.666667 397.212689
  L 420.000000 387.230307
  L 423.333333 377.067901
  L 426.666667 371.267482
  L 430.000000 400.821303
  L 433.333333 372.015025
  L 436.666667 369.750958
  L 440.000000 394.465409
  L 443.333333 378.159795
  L 446.666667 372.976666
  L 450.000000 365.411603
  L 453.333333 393.957661
  L 456.666667 388.013107
  L 460.000000 404.278023
  L 463.333333 391.794496
  L 466.666667 380.230947
  L 470.000000 394.645309
  L 473.333333 378.944900
  L 476.666667 403.914980
  L 480.000000 384.300870
  L 483.333333 379.016657
  L 486.666667 358.771024
  L 490.000000 370.507899
  L 493.333333 394.102564
  L 496.666667 382.179436
  L 500.000000 400.114327
  L 503.333333 376.934866
  L 506.666667 381.766097
  L 510.000000 375.448120
  L 513.333333 389.356327
  L 516.666667 378.141558
  L 520.000000 384.659498
  L 523.333333 400.650873
  L 526.666667 375.653571
  L 530.000000 384.271034
  L 533.333333 382.630421
  L 536.666667 402.693180
  L 540.000000 408.241498
  L 543.333333 377.157623
  L 546.666667 413.150284
  L 550.000000 384.454234
  L 553.333333 388.470030
  L 556.666667 388.460954
  L 560.000000 391.965812
  L 563.333333 368.439955
  L 566.666667 374.334069
  L 570.000000 347.777778
  L 573.333333 408.908025
  L 576.666667 454.722549
  L 580.000000 281.918786
" stroke="rgb(248,118,109)" stroke-width="2" fill-opacity="0"/>
<path d="M 83.333333 266.643336
  L 86.666667 400.167564
  L 90.000000 442.144858
  L 93.333333 419.116276
  L 96.666667 376.843325
  L 100.000000 377.556849
  L 103.333333 397.242082
  L 106.666667 377.263882
  L 110.000000 392.038794
  L 113.333333 395.186246
  L 116.666667 385.594734
  L 120.000000 399.604247
  L 123.333333 406.062259
  L 126.666667 401.920758
  L 130.000000 392.366965
  L 133.333333 373.380274
  L 136.666667 388.025308
  L 140.000000 368.689068
  L 143.333333 389.695944
  L 146.666667 393.092979
  L 150.000000 405.564755
  L 153.333333 383.571429
  L 156.666667 360.609618
  L 160.000000 383.579520
  L 163.333333 390.843498
  L 166.666667 387.566962
  L 170.000000 369.595462
  L 173.333333 391.276026
  L 176.666667 367.454198
  L 180.000000 392.352106
  L 183.333333 384.262690
  L 186.666667 378.915747
  L 190.000000 386.868955
  L 193.333333 385.592642
  L 196.666667 388.101745
  L 200.000000 362.211076
  L 203.333333 380.805987
  L 206.666667 419.381217
  L 210.000000 376.633764
  L 213.333333 412.313965
  L 216.666667 388.585859
  L 220.000000 380.019771
  L 223.333333 393.454509
  L 226.666667 374.161789
  L 230.000000 385.113881
  L 233.333333 375.131086
  L 236.666667 384.515746
  L 240.000000 393.707999
  L 243.333333 379.379892
  L 246.666667 379.704305
  L 250.000000 384.886944
  L 253.333333 397.670093
  L 256.666667 385.632219
  L 260.000000 379.239637
  L 263.333333 365.445731
  L 266.666667 393.714064
  L 270.000000 397.384115
  L 273.333333 408.515785
  L 276.666667 371.561119
  L 280.000000 404.054041
  L 283.333333 402.869955
  L 286.666667 370.726082
  L 290.000000 393.215451
  L 293.333333 401.756127
  L 296.666667 377.637470
  L 300.000000 378.906556
  L 303.333333 402.547823
  L 306.666667 391.483031
  L 310.000000 392.137050
  L 313.333333 381.008304
  L 316.666667 383.555941
  L 320.000000 380.353357
  L 323.333333 400.676372
  L 326.666667 384.791030
  L 330.000000 380.936137
  L 333.333333 363.353609
  L 336.666667 392.366282
  L 340.000000 359.178766
  L 343.333333 391.809729
  L 346.666667 380.216651
  L 350.000000 398.525144
  L 353.333333 398.024691
  L 356.666667 394.735336
  L 360.000000 378.648380
  L 363.333333 365.528553
  L 366.666667 378.390263
  L 370.000000 367.454198
  L 373.333333 387.512453
  L 376.666667 379.308878
  L 380.000000 387.739183
  L 383.333333 365.418285
  L 386.666667 374.001967
  L 390.000000 384.035379
  L 393.333333 390.834813
  L 396.666667 392.562115
  L 400.000000 380.077564
  L 403.333333 376.962052
  L 406.666667 404.032403
  L 410.000000 395.380883
  L 413.333333 387.024266
  L 416.666667 371.152263
  L 420.000000 357.646812
  L 423.333333 394.237750
  L 426.666667 379.947835
  L 430.000000 395.487572
  L 433.333333 393.695090
  L 436.666667 374.731351
  L 440.000000 381.796157
  L 443.333333 385.919104
  L 446.666667 385.849642
  L 450.000000 386.155861
  L 453.333333 383.724054
  L 456.666667 378.587616
  L 460.000000 402.339631
  L 463.333333 387.708977
  L 466.666667 375.902476
  L 470.000000 398.558796
  L 473.333333 371.096831
  L 476.666667 368.911728
  L 480.000000 369.518758
  L 483.333333 378.374527
  L 486.666667 384.522556
  L 490.000000 376.981500
  L 493.333333 389.261117
  L 496.666667 385.990680
  L 500.000000 386.051067
  L 503.333333 377.551789
  L 506.666667 378.480786
  L 510.000000 381.433509
  L 513.333333 395.670128
  L 516.666667 412.063492
  L 520.000000 408.629894
  L 523.333333 383.947534
  L 526.666667 372.664386
  L 530.000000 386.823288
  L 533.333333 408.777976
  L 536.666667 414.473584
  L 540.000000 394.220926
  L 543.333333 375.515602
  L 546.666667 382.056555
  L 550.000000 404.980698
  L 553.333333 376.200901
  L 556.666667 393.484216
  L 560.000000 418.405453
  L 563.333333 388.342945
  L 566.666667 406.897019
  L 570.000000 416.522323
  L 573.333333 411.294597
  L 576.666667 410.827068
  L 580.000000 432.748943
" stroke="rgb(0,191,196)" stroke-width="2" fill-opacity="0"/>
<text x="650" y="650" text-anchor="end">--OB 0,148,4,0</text>
<line x1="573.333333" y1="580" x2="573.333333" y2="80" stroke-dasharray="5 1" stroke="rgb(248,118,109)" stroke-width="1" />
<line x1="93.333333" y1="580" x2="93.333333" y2="80" stroke-dasharray="5 1" stroke="rgb(0,191,196)" stroke-width="1" />
<rect x="590" y="310" width="20" height="20" fill="rgb(248,118,109)" />
<text x="615" y="320" text-anchor="start" dominant-baseline="middle">#1</text>
<rect x="590" y="330" width="20" height="20" fill="rgb(0,191,196)" />
<text x="615" y="340" text-anchor="start" dominant-baseline="middle">#2</text>
</svg>
